<?xml version="1.0" encoding="UTF-8"?>
<svg version="1.1" xmlns="http://www.w3.org/2000/svg" width="156" height="148">
<path d="M0 0 C51.48 0 102.96 0 156 0 C156 48.84 156 97.68 156 148 C104.52 148 53.04 148 0 148 C0 99.16 0 50.32 0 0 Z " fill="#FDFEFD" transform="translate(0,0)"/>
<path d="M0 0 C4.26832981 -0.09965569 8.53602469 -0.17183391 12.80517578 -0.21972656 C14.25418917 -0.23971295 15.70312325 -0.26691197 17.15185547 -0.30175781 C33.76483146 -0.69103499 33.76483146 -0.69103499 40.73583984 5.55541992 C45.34259862 10.1406379 47.12573429 15.90312391 49 22 C49.86625 21.236875 50.7325 20.47375 51.625 19.6875 C56.78688675 15.14012358 61.51786342 13.62212227 68.3671875 13.70703125 C69.38656906 13.71339851 69.38656906 13.71339851 70.42654419 13.71989441 C72.57644924 13.73655734 74.72538299 13.77418284 76.875 13.8125 C78.3411322 13.827563 79.80727924 13.84124857 81.2734375 13.85351562 C84.84926875 13.8864192 88.42453941 13.93811337 92 14 C91.08537772 23.32136323 88.04620954 28.69211553 80.84375 34.7734375 C76.58792871 37.60464065 72.88687841 38.24519092 67.82421875 38.1953125 C66.66728516 38.18886719 65.51035156 38.18242188 64.31835938 38.17578125 C63.12017578 38.15902344 61.92199219 38.14226562 60.6875 38.125 C59.46998047 38.11597656 58.25246094 38.10695312 56.99804688 38.09765625 C53.99861353 38.07413128 50.99928156 38.03826156 48 38 C48 46.25 48 54.5 48 63 C50.97 63.66 53.94 64.32 57 65 C63.96671323 68.62269088 70.40742298 75.527278 73 83 C73 85.97 73 88.94 73 92 C53.53 92 34.06 92 14 92 C15.54662005 81.17365967 18.52440359 74.60527389 26.91015625 67.546875 C31.11392267 64.4353021 34.68167822 63 40 63 C40 49.8 40 36.6 40 23 C32.46097375 23.19661432 32.46097375 23.19661432 24.92382812 23.45043945 C16.11753811 23.56564666 11.69263925 21.20028735 5.1875 15.5625 C0.76615319 10.38320802 -0.15107211 6.72668466 0 0 Z " fill="#87D731" transform="translate(34,27)"/>
<path d="M0 0 C5.64529749 4.43769473 9.51425031 9.26776125 12 16 C12 18.97 12 21.94 12 25 C-7.47 25 -26.94 25 -47 25 C-45.3098347 13.16884293 -41.51733402 6.19248907 -32 -1 C-22.86623131 -6.77850672 -8.99747468 -5.64920809 0 0 Z " fill="#6E4635" transform="translate(95,94)"/>
</svg>
